<svg width="116" height="119" viewBox="0 0 116 119" fill="none" xmlns="http://www.w3.org/2000/svg">
<path fill-rule="evenodd" clip-rule="evenodd" d="M56.9998 119C57.6557 115.769 58 112.425 58 109C58 81.3858 35.6142 59 8 59C5.27701 59 2.60486 59.2177 0 59.6366V80.0831C2.54685 79.3801 5.22956 79.0045 8 79.0045C24.5661 79.0045 37.9955 92.4339 37.9955 109C37.9955 112.506 37.3938 115.872 36.2882 119H56.9998Z" fill="url(#paint0_linear_2_268)" fill-opacity="0.2"/>
<path fill-rule="evenodd" clip-rule="evenodd" d="M59.0002 -4.98308e-06C58.3443 3.23109 58 6.57534 58 9.99999C58 37.6142 80.3858 60 108 60C110.723 60 113.395 59.7823 116 59.3634L116 38.9169C113.453 39.6199 110.77 39.9955 108 39.9955C91.434 39.9955 78.0045 26.566 78.0045 10C78.0045 6.49361 78.6062 3.12774 79.7118 -3.17241e-06L59.0002 -4.98308e-06Z" fill="url(#paint1_linear_2_268)" fill-opacity="0.2"/>
<defs>
<linearGradient id="paint0_linear_2_268" x1="29" y1="59" x2="29" y2="119" gradientUnits="userSpaceOnUse">
<stop stop-color="#0163E0"/>
<stop offset="1" stop-color="#08B2D2"/>
</linearGradient>
<linearGradient id="paint1_linear_2_268" x1="87" y1="60" x2="87" y2="-2.53526e-06" gradientUnits="userSpaceOnUse">
<stop stop-color="#0163E0"/>
<stop offset="1" stop-color="#08B2D2"/>
</linearGradient>
</defs>
</svg>
