<svg width="32" height="32" viewBox="0 0 32 32" fill="none" xmlns="http://www.w3.org/2000/svg">
<path fill-rule="evenodd" clip-rule="evenodd" d="M13.2981 0.687536C14.9834 -0.229179 17.0185 -0.229179 18.7038 0.687536L28.474 6.00205C30.2944 6.99226 31.4276 8.89867 31.4276 10.971V21.029C31.4276 23.1013 30.2944 25.0077 28.474 25.998L18.7038 31.3125C17.0185 32.2292 14.9834 32.2292 13.2981 31.3125L3.52784 25.998C1.70742 25.0077 0.574219 23.1013 0.574219 21.029L0.574219 10.971C0.574219 8.89867 1.70742 6.99226 3.52784 6.00205L13.2981 0.687536Z" fill="#F7931A"/>
<g clip-path="url(#clip0_933_39991)">
<path d="M15.9992 28.8C23.0685 28.8 28.7992 23.0693 28.7992 16C28.7992 8.93077 23.0685 3.20001 15.9992 3.20001C8.92997 3.20001 3.19922 8.93077 3.19922 16C3.19922 23.0693 8.92997 28.8 15.9992 28.8Z" fill="#F7931A"/>
<path d="M21.6252 14.416C21.8764 12.7392 20.5988 11.8376 18.8532 11.236L19.4196 8.964L18.0372 8.62L17.4852 10.832C17.122 10.7408 16.7492 10.656 16.3772 10.5712L16.9332 8.3448L15.5508 8L14.9844 10.2712C14.6836 10.2024 14.3876 10.1352 14.1012 10.0632L14.1028 10.056L12.1956 9.58L11.8276 11.0568C11.8276 11.0568 12.854 11.292 12.8324 11.3064C13.3924 11.4464 13.4932 11.8168 13.4764 12.1112L12.8316 14.6992C12.87 14.7088 12.9196 14.7232 12.9756 14.7448L12.8292 14.7088L11.9252 18.3344C11.8564 18.504 11.6828 18.7592 11.2908 18.6624C11.3052 18.6824 10.286 18.412 10.286 18.412L9.59961 19.9944L11.3996 20.4432C11.734 20.5272 12.062 20.6152 12.3844 20.6976L11.8124 22.9952L13.194 23.3392L13.7604 21.0672C14.138 21.1688 14.5044 21.2632 14.8628 21.3528L14.298 23.6152L15.6804 23.9592L16.2524 21.6664C18.6108 22.1128 20.3836 21.9328 21.13 19.8C21.7316 18.0832 21.1004 17.092 19.8596 16.4464C20.7636 16.2384 21.4436 15.644 21.6252 14.416ZM18.4652 18.8464C18.0388 20.564 15.1468 19.6352 14.2092 19.4024L14.9692 16.3584C15.9068 16.5928 18.9124 17.056 18.4652 18.8464ZM18.8932 14.3912C18.5036 15.9536 16.0972 15.1592 15.3172 14.9648L16.0052 12.2048C16.7852 12.3992 19.2996 12.7616 18.8932 14.3912Z" fill="white"/>
</g>
<defs>
<clipPath id="clip0_933_39991">
<rect width="25.6" height="25.6" fill="white" transform="translate(3.19922 3.20001)"/>
</clipPath>
</defs>
</svg>
