<svg width="99" height="52" viewBox="0 0 99 52" fill="none" xmlns="http://www.w3.org/2000/svg">
<path d="M1 50.5C1 48.5 4.45116 42.5 6 41.5C8.5 40 11.5 40.5 12.5 39C13.5 37.5 23.0489 16 25.5 15C27.9511 14 31.5 20.5 33.5 21C35.5 21.5 36.9511 22 40.5 29.5C45.3767 39.8062 47.9511 47 51 47C57.5 47 55.8722 17.5 59.5 15C61.6767 13.5 64 19 67 17.5C69.2361 16.382 70.9511 1 74.5 1C77.7223 1 80.1811 11.8436 82.5 13.5C86 16 96 16 97.5 16" stroke="#FF6B6B" stroke-width="1.5" stroke-linecap="round"/>
</svg>
