<svg width="24" height="24" viewBox="0 0 24 24" fill="none" xmlns="http://www.w3.org/2000/svg">
<g clip-path="url(#clip0_2_206)">
<path fill-rule="evenodd" clip-rule="evenodd" d="M19 4.74098V7.99998C19.394 7.99998 19.7841 8.07758 20.1481 8.22834C20.512 8.3791 20.8427 8.60008 21.1213 8.87866C21.3999 9.15723 21.6209 9.48795 21.7716 9.85193C21.9224 10.2159 22 10.606 22 11C22 11.3939 21.9224 11.7841 21.7716 12.148C21.6209 12.512 21.3999 12.8427 21.1213 13.1213C20.8427 13.3999 20.512 13.6209 20.1481 13.7716C19.7841 13.9224 19.394 14 19 14V17C19 18.648 17.119 19.589 15.8 18.6L13.74 17.054C12.6389 16.2283 11.3568 15.6771 10 15.446V18.29C10.0001 18.9437 9.76389 19.5755 9.3349 20.0688C8.9059 20.5621 8.31305 20.8837 7.66562 20.9743C7.01818 21.0649 6.35982 20.9184 5.81188 20.5618C5.26394 20.2053 4.86337 19.6626 4.684 19.034L3.114 13.538C2.54902 12.8708 2.18134 12.0592 2.05229 11.1945C1.92324 10.3298 2.03793 9.44622 2.38348 8.64312C2.72903 7.84002 3.29174 7.14922 4.00835 6.64837C4.72496 6.14753 5.56706 5.85649 6.44 5.80798L9.458 5.63998C10.9346 5.55781 12.3706 5.12631 13.648 4.38098L15.992 3.01298C17.326 2.23598 19 3.19698 19 4.74098ZM5.634 15.078L6.607 18.485C6.65383 18.6499 6.75874 18.7923 6.90237 18.8859C7.046 18.9795 7.21865 19.018 7.38843 18.9942C7.55821 18.9704 7.71366 18.886 7.82607 18.7566C7.93848 18.6272 8.00026 18.4614 8 18.29V15.28L6.44 15.193C6.16852 15.1779 5.89885 15.1394 5.634 15.078ZM17 4.74098L14.655 6.10998C13.2304 6.94042 11.6418 7.45026 10 7.60398V13.423C11.787 13.669 13.488 14.366 14.94 15.454L17 17V4.74098ZM8 7.72398L6.55 7.80398C5.87545 7.84122 5.23936 8.13 4.76731 8.6133C4.29527 9.0966 4.02155 9.73931 4.0002 10.4146C3.97885 11.0898 4.21142 11.7485 4.652 12.2607C5.09258 12.7728 5.70915 13.1012 6.38 13.181L6.55 13.196L8 13.276V7.72398ZM19 9.99998V12C19.2549 11.9997 19.5 11.9021 19.6854 11.7271C19.8707 11.5522 19.9822 11.313 19.9972 11.0586C20.0121 10.8041 19.9293 10.5536 19.7657 10.3581C19.6021 10.1627 19.3701 10.0371 19.117 10.007L19 9.99998Z" fill="#90A3BF"/>
</g>
<defs>
<clipPath id="clip0_2_206">
<rect width="24" height="24" fill="white"/>
</clipPath>
</defs>
</svg>
