<svg width="73" height="27" viewBox="0 0 73 27" fill="none" xmlns="http://www.w3.org/2000/svg">
<line x1="1.5" y1="13.9839" x2="71.5" y2="13.9839" stroke="#E2E8F0" stroke-linecap="round" stroke-dasharray="4 4"/>
<path d="M13.5 16.5161L12.7724 16.3342L13.5 16.5161ZM46.5 10.0161V10.7661H46.5923L46.6819 10.7437L46.5 10.0161ZM58.5 6.51607V5.76607V6.51607ZM71.5 7.26607C71.9142 7.26607 72.25 6.93028 72.25 6.51607C72.25 6.10185 71.9142 5.76607 71.5 5.76607V7.26607ZM1.74541 26.5989C1.82132 25.9157 2.04405 24.9619 2.69802 24.1875C3.32574 23.4441 4.43533 22.7661 6.5 22.7661V21.2661C4.06467 21.2661 2.50759 22.088 1.55198 23.2197C0.622618 24.3202 0.345344 25.6164 0.254587 26.4332L1.74541 26.5989ZM6.5 22.7661C10.1008 22.7661 12.0218 21.8809 13.0392 20.4782C13.5312 19.7998 13.7626 19.0624 13.9063 18.4035C13.9778 18.0758 14.0304 17.7524 14.0783 17.4674C14.1276 17.1734 14.1715 16.9225 14.2276 16.698L12.7724 16.3342C12.6999 16.6242 12.6473 16.9309 12.599 17.2191C12.5491 17.5163 12.5028 17.7994 12.4408 18.0838C12.3175 18.6491 12.1437 19.158 11.8249 19.5975C11.221 20.4302 9.89917 21.2661 6.5 21.2661V22.7661ZM14.2276 16.698C14.3072 16.3798 14.5498 15.9917 14.9702 15.5271C15.3822 15.0717 15.8962 14.6152 16.4337 14.1409C16.9534 13.6824 17.5078 13.1966 17.9272 12.7259C18.3188 12.2863 18.75 11.694 18.75 11.0161H17.25C17.25 11.0881 17.1812 11.3083 16.8072 11.7281C16.4609 12.1168 15.9841 12.5373 15.4413 13.0162C14.9163 13.4795 14.3365 13.9917 13.8579 14.5207C13.3877 15.0404 12.9428 15.6523 12.7724 16.3342L14.2276 16.698ZM18.75 11.0161C18.75 10.9652 18.7782 10.7843 18.8804 10.4902C18.9753 10.217 19.1129 9.9062 19.2771 9.61702C19.4441 9.32316 19.6213 9.08209 19.7852 8.92468C19.9629 8.75396 20.0344 8.76607 20 8.76607V7.26607C19.4656 7.26607 19.0371 7.56335 18.7461 7.84285C18.4412 8.13566 18.1809 8.50984 17.9729 8.87616C17.7621 9.24716 17.5872 9.64146 17.4634 9.9981C17.3468 10.3339 17.25 10.7076 17.25 11.0161H18.75ZM20 8.76607C20.0005 8.76607 19.9995 8.76606 20 8.76607C20.0005 8.76607 19.9995 8.76606 20 8.76607C20 8.76607 19.9999 8.76607 19.9999 8.76607C19.9999 8.76606 19.9998 8.76606 19.9997 8.76606C19.9996 8.76605 19.9995 8.76604 19.9994 8.76603C19.9993 8.76601 19.9998 8.76606 20.0012 8.7664C20.0038 8.76705 20.0118 8.76935 20.0261 8.77631C20.0572 8.79144 20.1077 8.82361 20.1814 8.88912C20.346 9.03541 20.4999 9.22629 20.7481 9.50995C21.1777 10.0009 21.8794 10.7661 23 10.7661V9.26607C22.6206 9.26607 22.3223 9.03124 21.8769 8.52219C21.6876 8.30584 21.4353 7.99673 21.178 7.76801C20.91 7.52978 20.5183 7.26607 20 7.26607V8.76607ZM23 10.7661C23.7819 10.7661 25.3848 10.7149 26.9158 10.8711C27.6809 10.9492 28.384 11.0755 28.929 11.2678C29.5013 11.4696 29.7489 11.6909 29.8292 11.8515L31.1708 11.1807C30.8237 10.4864 30.1076 10.0929 29.4279 9.85314C28.7209 9.60383 27.8836 9.46206 27.0681 9.37884C25.4378 9.21247 23.7181 9.26607 23 9.26607V10.7661ZM29.8292 11.8515C30.0923 12.3777 30.4666 13.363 30.9511 14.619C31.4262 15.8503 31.9914 17.2977 32.6178 18.6776C33.2411 20.0504 33.9424 21.3962 34.6995 22.4094C35.0784 22.9163 35.4915 23.3677 35.94 23.6977C36.3897 24.0285 36.9154 24.2661 37.5 24.2661V22.7661C37.3346 22.7661 37.1146 22.6996 36.8289 22.4894C36.5421 22.2785 36.2304 21.9521 35.9011 21.5114C35.2419 20.6294 34.5935 19.4009 33.9837 18.0576C33.3771 16.7214 32.8257 15.3106 32.3506 14.0791C31.885 12.8722 31.4754 11.7898 31.1708 11.1807L29.8292 11.8515ZM37.5 24.2661C38.1949 24.2661 38.7212 23.8705 39.094 23.3996C39.4627 22.934 39.7515 22.3132 39.9898 21.6421C40.4686 20.2941 40.82 18.5169 41.129 16.7719C41.4435 14.9963 41.7144 13.2534 42.0334 11.8724C42.1927 11.1831 42.3556 10.6232 42.5266 10.2179C42.7172 9.76651 42.8479 9.68066 42.8354 9.68689L42.1646 8.34525C41.6521 8.60147 41.3466 9.15625 41.1447 9.63456C40.9234 10.159 40.7376 10.8177 40.5719 11.5347C40.2412 12.9662 39.9574 14.7859 39.652 16.5103C39.3412 18.2652 39.0077 19.9255 38.5763 21.1401C38.3596 21.7502 38.137 22.1919 37.918 22.4684C37.7032 22.7398 37.5655 22.7661 37.5 22.7661V24.2661ZM42.8354 9.68689C43.2307 9.48927 43.5514 9.56906 44.1386 9.89198C44.3997 10.0356 44.7799 10.2687 45.1373 10.4346C45.5201 10.6123 45.9758 10.7661 46.5 10.7661V9.26607C46.2742 9.26607 46.0424 9.20107 45.769 9.07409C45.4701 8.93532 45.2253 8.77776 44.8614 8.57766C44.1986 8.21307 43.2693 7.79287 42.1646 8.34525L42.8354 9.68689ZM46.6819 10.7437C47.1231 10.6334 47.49 10.3531 47.7844 10.054C48.0859 9.74781 48.368 9.36366 48.6317 8.95161C49.1575 8.12999 49.6762 7.09068 50.1708 6.10148C50.6762 5.09068 51.1575 4.12999 51.6317 3.38911C51.868 3.01991 52.0859 2.73218 52.2844 2.53055C52.49 2.32181 52.6231 2.25837 52.6819 2.24367L52.3181 0.788461C51.8769 0.898768 51.51 1.17908 51.2156 1.47815C50.9141 1.78433 50.632 2.16848 50.3683 2.58053C49.8425 3.40214 49.3238 4.44146 48.8292 5.43066C48.3238 6.44146 47.8425 7.40214 47.3683 8.14303C47.132 8.51223 46.9141 8.79995 46.7156 9.00158C46.51 9.21033 46.3769 9.27377 46.3181 9.28846L46.6819 10.7437ZM52.6819 2.24367C52.7904 2.21654 52.9981 2.2292 53.4086 2.62577C53.809 3.01258 54.2183 3.587 54.7022 4.2645C55.1628 4.90936 55.686 5.63936 56.2668 6.20281C56.8444 6.76312 57.5865 7.26607 58.5 7.26607V5.76607C58.1635 5.76607 57.7806 5.58152 57.3113 5.1262C56.8452 4.67403 56.3997 4.06027 55.9228 3.39264C55.4692 2.75763 54.9723 2.05081 54.4508 1.54699C53.9394 1.05294 53.2096 0.565592 52.3181 0.788461L52.6819 2.24367ZM58.5 7.26607C60.1 7.26607 67.5 7.26607 71.5 7.26607V5.76607C67.5 5.76607 60.1 5.76607 58.5 5.76607V7.26607Z" fill="#33D49D"/>
</svg>
