<svg width="73" height="26" viewBox="0 0 73 26" fill="none" xmlns="http://www.w3.org/2000/svg">
<line x1="1.5" y1="11" x2="71.5" y2="11" stroke="#E2E8F0" stroke-linecap="round" stroke-dasharray="4 4"/>
<path d="M1 13.2556C3.95833 13.2556 9.875 10.7 11.8472 9.67778C15.4084 7.83198 18.2569 1.5 19.7361 1.5C21.2153 1.5 23.6806 10.1889 25.6528 10.1889C26.6389 10.1889 28.1181 8.14444 29.1042 8.65556C31.0764 9.67778 32.0625 24.5 35.0208 24.5C38.9653 24.5 39.4583 13.7667 41.9236 12.2333C44.3889 10.7 46.8542 11.2111 48.3333 11.2111C49.8125 11.2111 51.2917 9.16667 52.2778 9.16667C52.9751 9.16667 54.2942 13.6274 55.7292 13.2556C57.7014 12.7444 59.1806 4.56667 60.6597 4.05556C62.1389 4.05556 62.1389 6.61111 63.6181 6.61111C65.0972 6.61111 71.5069 4.05556 72 7.63333" stroke="#33D49D" stroke-width="1.5" stroke-linecap="round"/>
</svg>
