<svg width="64" height="64" viewBox="0 0 64 64" fill="none" xmlns="http://www.w3.org/2000/svg">
<g filter="url(#filter0_d_2_323)">
<path fill-rule="evenodd" clip-rule="evenodd" d="M28.6215 6.85942C30.7281 5.71353 33.2719 5.71353 35.3786 6.85942L47.5914 13.5026C49.8669 14.7403 51.2834 17.1233 51.2834 19.7137V32.2863C51.2834 34.8767 49.8669 37.2597 47.5914 38.4974L35.3786 45.1406C33.2719 46.2865 30.7281 46.2865 28.6215 45.1406L16.4087 38.4974C14.1331 37.2597 12.7166 34.8767 12.7166 32.2863L12.7166 19.7137C12.7166 17.1233 14.1331 14.7403 16.4087 13.5026L28.6215 6.85942Z" fill="#F7931A"/>
<g clip-path="url(#clip0_2_323)">
<path d="M32 42C40.8366 42 48 34.8366 48 26C48 17.1634 40.8366 10 32 10C23.1634 10 16 17.1634 16 26C16 34.8366 23.1634 42 32 42Z" fill="#F7931A"/>
<path d="M39.032 24.02C39.346 21.924 37.749 20.797 35.567 20.045L36.275 17.205L34.547 16.775L33.857 19.54C33.403 19.426 32.937 19.32 32.472 19.214L33.167 16.431L31.439 16L30.731 18.839C30.355 18.753 29.985 18.669 29.627 18.579L29.629 18.57L27.245 17.975L26.785 19.821C26.785 19.821 28.068 20.115 28.041 20.133C28.741 20.308 28.867 20.771 28.846 21.139L28.04 24.374C28.088 24.386 28.15 24.404 28.22 24.431L28.037 24.386L26.907 28.918C26.821 29.13 26.604 29.449 26.114 29.328C26.132 29.353 24.858 29.015 24.858 29.015L24 30.993L26.25 31.554C26.668 31.659 27.078 31.769 27.481 31.872L26.766 34.744L28.493 35.174L29.201 32.334C29.673 32.461 30.131 32.579 30.579 32.691L29.873 35.519L31.601 35.949L32.316 33.083C35.264 33.641 37.48 33.416 38.413 30.75C39.165 28.604 38.376 27.365 36.825 26.558C37.955 26.298 38.805 25.555 39.032 24.02ZM35.082 29.558C34.549 31.705 30.934 30.544 29.762 30.253L30.712 26.448C31.884 26.741 35.641 27.32 35.082 29.558ZM35.617 23.989C35.13 25.942 32.122 24.949 31.147 24.706L32.007 21.256C32.982 21.499 36.125 21.952 35.617 23.989Z" fill="white"/>
</g>
</g>
<defs>
<filter id="filter0_d_2_323" x="0" y="0" width="64" height="64" filterUnits="userSpaceOnUse" color-interpolation-filters="sRGB">
<feFlood flood-opacity="0" result="BackgroundImageFix"/>
<feColorMatrix in="SourceAlpha" type="matrix" values="0 0 0 0 0 0 0 0 0 0 0 0 0 0 0 0 0 0 127 0" result="hardAlpha"/>
<feOffset dy="6"/>
<feGaussianBlur stdDeviation="6"/>
<feColorMatrix type="matrix" values="0 0 0 0 0.627451 0 0 0 0 0.682353 0 0 0 0 0.752941 0 0 0 0.12 0"/>
<feBlend mode="normal" in2="BackgroundImageFix" result="effect1_dropShadow_2_323"/>
<feBlend mode="normal" in="SourceGraphic" in2="effect1_dropShadow_2_323" result="shape"/>
</filter>
<clipPath id="clip0_2_323">
<rect width="32" height="32" fill="white" transform="translate(16 10)"/>
</clipPath>
</defs>
</svg>
