<svg width="24" height="24" viewBox="0 0 24 24" fill="none" xmlns="http://www.w3.org/2000/svg">
<g clip-path="url(#clip0_2_399)">
<path d="M10 3.19998C8.43572 3.56262 6.99694 4.33718 5.8329 5.44332C4.66886 6.54946 3.82196 7.94689 3.38005 9.49066C2.93813 11.0344 2.9173 12.6683 3.31971 14.2229C3.72211 15.7774 4.53311 17.196 5.66856 18.3314C6.80402 19.4669 8.22259 20.2779 9.77713 20.6803C11.3317 21.0827 12.9656 21.0619 14.5093 20.62C16.0531 20.178 17.4505 19.3311 18.5567 18.1671C19.6628 17.0031 20.4374 15.5643 20.8 14C20.8 13.7348 20.6947 13.4804 20.5071 13.2929C20.3196 13.1053 20.0652 13 19.8 13H13C12.4696 13 11.9609 12.7893 11.5858 12.4142C11.2107 12.0391 11 11.5304 11 11V3.99998C10.9876 3.88151 10.9518 3.76668 10.8946 3.66215C10.8375 3.55763 10.7602 3.46548 10.6671 3.39107C10.5741 3.31665 10.4673 3.26144 10.3527 3.22864C10.2382 3.19584 10.1183 3.1861 10 3.19998Z" stroke="#718096" stroke-width="1.5" stroke-linecap="round" stroke-linejoin="round"/>
<path d="M15 3.49994C16.2697 3.94702 17.423 4.67324 18.3748 5.6251C19.3267 6.57696 20.0529 7.73022 20.5 8.99994H16C15.7348 8.99994 15.4804 8.89458 15.2929 8.70705C15.1054 8.51951 15 8.26516 15 7.99994V3.49994Z" stroke="#718096" stroke-width="1.5" stroke-linecap="round" stroke-linejoin="round"/>
</g>
<defs>
<clipPath id="clip0_2_399">
<rect width="24" height="24" fill="white"/>
</clipPath>
</defs>
</svg>
