<svg width="56" height="50" viewBox="0 0 56 50" fill="none" xmlns="http://www.w3.org/2000/svg">
<g filter="url(#filter0_d_2_252)">
<path fill-rule="evenodd" clip-rule="evenodd" d="M25.2972 0.687536C26.9825 -0.229179 29.0176 -0.229179 30.7029 0.687536L40.4731 6.00205C42.2935 6.99226 43.4267 8.89867 43.4267 10.971V21.029C43.4267 23.1013 42.2935 25.0077 40.4731 25.998L30.7029 31.3125C29.0176 32.2292 26.9825 32.2292 25.2972 31.3125L15.5269 25.998C13.7065 25.0077 12.5733 23.1013 12.5733 21.029L12.5733 10.971C12.5733 8.89867 13.7065 6.99226 15.5269 6.00205L25.2972 0.687536Z" fill="#627EEA"/>
<g clip-path="url(#clip0_2_252)">
<path d="M28 28.8C35.0692 28.8 40.8 23.0693 40.8 16C40.8 8.93077 35.0692 3.20001 28 3.20001C20.9308 3.20001 15.2 8.93077 15.2 16C15.2 23.0693 20.9308 28.8 28 28.8Z" fill="#627EEA"/>
<path d="M28 6.40002V13.496L33.9976 16.176L28 6.40002Z" fill="white" fill-opacity="0.602"/>
<path d="M28.3984 6.40002L22.4 16.176L28.3984 13.496V6.40002Z" fill="white"/>
<path d="M28 21.0816V25.9032L34.0016 17.6L28 21.0816Z" fill="white" fill-opacity="0.602"/>
<path d="M28.3984 25.9032V21.0808L22.4 17.6L28.3984 25.9032Z" fill="white"/>
<path d="M28 19.7608L33.9976 16.2784L28 13.6V19.7608Z" fill="white" fill-opacity="0.2"/>
<path d="M22.4 16.2784L28.3984 19.7608V13.6L22.4 16.2784Z" fill="white" fill-opacity="0.602"/>
</g>
</g>
<defs>
<filter id="filter0_d_2_252" x="0" y="-6" width="56" height="56" filterUnits="userSpaceOnUse" color-interpolation-filters="sRGB">
<feFlood flood-opacity="0" result="BackgroundImageFix"/>
<feColorMatrix in="SourceAlpha" type="matrix" values="0 0 0 0 0 0 0 0 0 0 0 0 0 0 0 0 0 0 127 0" result="hardAlpha"/>
<feOffset dy="6"/>
<feGaussianBlur stdDeviation="6"/>
<feColorMatrix type="matrix" values="0 0 0 0 0.627451 0 0 0 0 0.682353 0 0 0 0 0.752941 0 0 0 0.12 0"/>
<feBlend mode="normal" in2="BackgroundImageFix" result="effect1_dropShadow_2_252"/>
<feBlend mode="normal" in="SourceGraphic" in2="effect1_dropShadow_2_252" result="shape"/>
</filter>
<clipPath id="clip0_2_252">
<rect width="25.6" height="25.6" fill="white" transform="translate(15.2 3.20001)"/>
</clipPath>
</defs>
</svg>
