<svg width="64" height="64" viewBox="0 0 64 64" fill="none" xmlns="http://www.w3.org/2000/svg">
<g filter="url(#filter0_d_2_293)">
<path fill-rule="evenodd" clip-rule="evenodd" d="M28.6215 6.85942C30.7281 5.71353 33.2719 5.71353 35.3786 6.85942L47.5914 13.5026C49.8669 14.7403 51.2834 17.1233 51.2834 19.7137V32.2863C51.2834 34.8767 49.8669 37.2597 47.5914 38.4974L35.3786 45.1406C33.2719 46.2865 30.7281 46.2865 28.6215 45.1406L16.4087 38.4974C14.1331 37.2597 12.7166 34.8767 12.7166 32.2863L12.7166 19.7137C12.7166 17.1233 14.1331 14.7403 16.4087 13.5026L28.6215 6.85942Z" fill="#26A17B"/>
<g clip-path="url(#clip0_2_293)">
<path d="M32 42C40.8366 42 48 34.8366 48 26C48 17.1634 40.8366 10 32 10C23.1634 10 16 17.1634 16 26C16 34.8366 23.1634 42 32 42Z" fill="#26A17B"/>
<path fill-rule="evenodd" clip-rule="evenodd" d="M33.622 27.564V27.562C33.512 27.57 32.945 27.604 31.68 27.604C30.67 27.604 29.959 27.574 29.709 27.562V27.565C25.821 27.394 22.919 26.717 22.919 25.907C22.919 25.098 25.821 24.421 29.709 24.247V26.891C29.963 26.909 30.691 26.952 31.697 26.952C32.904 26.952 33.509 26.902 33.622 26.892V24.249C37.502 24.422 40.397 25.099 40.397 25.907C40.397 26.717 37.502 27.392 33.622 27.564ZM33.622 23.974V21.608H39.036V18H24.295V21.608H29.709V23.973C25.309 24.175 22 25.047 22 26.091C22 27.135 25.309 28.006 29.709 28.209V35.791H33.622V28.207C38.015 28.005 41.316 27.134 41.316 26.091C41.316 25.048 38.015 24.177 33.622 23.974Z" fill="white"/>
</g>
</g>
<defs>
<filter id="filter0_d_2_293" x="0" y="0" width="64" height="64" filterUnits="userSpaceOnUse" color-interpolation-filters="sRGB">
<feFlood flood-opacity="0" result="BackgroundImageFix"/>
<feColorMatrix in="SourceAlpha" type="matrix" values="0 0 0 0 0 0 0 0 0 0 0 0 0 0 0 0 0 0 127 0" result="hardAlpha"/>
<feOffset dy="6"/>
<feGaussianBlur stdDeviation="6"/>
<feColorMatrix type="matrix" values="0 0 0 0 0.627451 0 0 0 0 0.682353 0 0 0 0 0.752941 0 0 0 0.12 0"/>
<feBlend mode="normal" in2="BackgroundImageFix" result="effect1_dropShadow_2_293"/>
<feBlend mode="normal" in="SourceGraphic" in2="effect1_dropShadow_2_293" result="shape"/>
</filter>
<clipPath id="clip0_2_293">
<rect width="32" height="32" fill="white" transform="translate(16 10)"/>
</clipPath>
</defs>
</svg>
